<svg width="740" height="739" viewBox="0 0 740 739" fill="none" xmlns="http://www.w3.org/2000/svg">
<path d="M40.797 387.93C44.429 390.258 47.165 392.41 49.357 396.17C49.725 396.778 50.101 397.386 50.485 398.018C54.661 406.578 55.853 414.818 56.909 424.178C58.077 434.338 59.693 444.178 62.109 454.098C62.341 455.098 62.581 456.098 62.829 457.13C69.725 485.37 82.349 513.29 98.669 537.13C99.717 538.674 100.733 540.226 101.741 541.794C105.965 548.298 110.541 554.434 115.421 560.434C116.605 561.914 117.765 563.402 118.925 564.906C119.317 565.402 119.709 565.906 120.109 566.426C120.845 567.378 121.581 568.33 122.317 569.29C124.501 572.082 126.829 574.578 129.357 577.05C130.301 578.106 131.237 579.178 132.157 580.25C134.325 582.762 136.573 585.13 138.957 587.45C139.389 587.898 139.829 588.338 140.277 588.802C142.533 591.098 144.789 593.29 147.301 595.306C148.317 596.17 148.317 596.17 149.357 597.05V598.65C150.037 598.954 150.037 598.954 150.733 599.258C152.829 600.402 154.317 601.762 156.053 603.402C161.061 607.986 166.373 612.122 171.733 616.282C172.557 616.922 173.389 617.562 174.245 618.218C179.093 621.906 184.005 625.322 189.125 628.618C189.709 629.05 190.293 629.482 190.893 629.922V631.522C191.309 631.586 191.733 631.65 192.165 631.714C194.853 632.562 197.021 634.114 199.341 635.674C203.405 638.346 207.501 640.818 211.821 643.082C214.093 644.314 216.301 645.626 218.517 646.954C223.669 649.97 228.997 652.498 234.437 654.922C234.933 655.146 235.421 655.362 235.925 655.586C251.605 662.57 267.845 668.946 284.565 673.106C285.837 673.426 285.837 673.426 287.133 673.754C334.253 685.514 383.933 688.314 431.933 678.562C432.773 678.386 433.621 678.218 434.485 678.042C453.685 674.034 473.205 668.762 491.045 660.602C493.069 659.706 495.093 658.882 497.157 658.082C502.757 655.858 508.197 653.242 513.637 650.618C514.181 650.354 514.725 650.09 515.293 649.818C524.173 645.53 532.653 640.858 540.813 635.498C541.669 634.946 542.525 634.394 543.413 633.818C545.765 632.274 548.093 630.698 550.413 629.098C550.845 628.802 551.285 628.498 551.733 628.194C557.965 623.898 563.813 619.314 569.573 614.354C571.789 612.442 574.061 610.626 576.357 608.818C578.653 607.01 580.781 605.17 582.813 603.066L584.813 601.066H586.413V599.466C587.413 598.506 587.413 598.506 588.909 597.322C592.341 594.418 595.333 591.218 598.349 587.882C606.989 578.602 615.229 570.682 628.589 569.562C634.813 569.658 641.149 572.834 645.629 577.01C647.453 579.018 648.973 581.122 650.429 583.41C650.925 584.162 650.925 584.162 651.437 584.922C655.029 591.354 654.837 600.362 653.005 607.402C650.437 613.042 645.925 618.202 641.645 622.602H640.045C639.861 623.05 639.677 623.498 639.493 623.954C638.141 626.33 636.469 627.978 634.445 629.802H632.845L632.045 632.202C630.757 633.466 630.757 633.466 629.141 634.802C626.989 636.626 624.949 638.466 622.989 640.506C620.013 643.538 616.733 646.154 613.389 648.826C611.533 650.354 609.765 651.922 608.013 653.562C602.029 658.946 595.293 663.482 588.813 668.202C588.053 668.754 587.301 669.298 586.525 669.858C537.485 704.818 480.925 726.658 421.725 735.298C421.149 735.378 420.581 735.466 419.989 735.546C411.589 736.778 403.189 737.498 394.709 737.842C394.069 737.874 393.437 737.898 392.781 737.922C387.853 738.122 382.941 738.274 377.981 738.394C377.221 738.41 376.469 738.434 375.685 738.45C365.125 738.698 354.565 738.626 344.005 737.994C343.453 737.962 342.893 737.93 342.317 737.898C334.645 737.426 327.037 736.546 319.437 735.442C318.629 735.33 317.829 735.218 317.005 735.106C288.845 731.122 261.005 723.826 234.605 713.026C233.429 712.554 233.429 712.554 232.237 712.074C222.717 708.234 213.277 704.25 204.237 699.434C202.477 698.506 200.709 697.602 198.941 696.698C173.021 683.338 149.021 666.778 126.621 648.218C126.029 647.738 125.437 647.258 124.829 646.762C123.525 645.682 122.269 644.554 121.021 643.418V641.818C120.549 641.61 120.077 641.394 119.597 641.178C117.773 640.194 116.493 639.146 114.989 637.73C114.477 637.242 113.957 636.754 113.429 636.258C112.893 635.746 112.365 635.242 111.821 634.722C111.285 634.218 110.757 633.722 110.205 633.202C108.741 631.818 107.277 630.418 105.821 629.018C105.165 628.41 104.517 627.794 103.845 627.162C102.621 625.818 102.621 625.818 102.621 624.218C101.917 623.914 101.917 623.914 101.205 623.602C99.237 622.522 98.013 621.354 96.477 619.722C95.949 619.154 95.421 618.594 94.869 618.01C94.325 617.418 93.781 616.826 93.221 616.218C92.661 615.634 92.101 615.042 91.525 614.434C87.421 610.026 87.421 610.026 87.421 608.218C86.629 607.954 85.837 607.69 85.021 607.418C83.693 605.986 83.693 605.986 82.221 604.074C81.365 602.978 81.365 602.978 80.501 601.858C79.877 601.058 79.261 600.25 78.621 599.418C77.949 598.578 77.277 597.746 76.605 596.906C64.765 582.026 53.885 566.506 44.445 549.946C43.781 548.786 43.109 547.626 42.445 546.474C37.109 537.274 32.525 527.834 28.285 518.154C27.557 516.514 26.829 514.882 26.085 513.25C22.213 504.61 19.229 495.57 16.245 486.61C16.021 485.946 15.797 485.282 15.565 484.594C8.453 463.154 2.045 440.354 0.205004 417.794C0.149004 417.114 0.0850056 416.442 0.0290056 415.738C-0.330994 407.498 2.677 399.018 8.109 392.858C17.709 383.578 29.469 381.178 41.229 387.626L40.797 387.93Z" fill="#45AAB8"/>
<path d="M636.365 285.814C637.381 286.31 637.381 286.31 638.413 286.814C646.245 292.438 652.413 302.734 653.933 312.254C655.149 323.614 653.317 333.854 646.093 343.054C638.845 351.294 630.573 356.414 619.533 357.214C610.413 357.47 602.413 355.718 594.733 350.638C594.125 350.238 593.517 349.83 592.885 349.414C585.653 344.23 581.525 337.414 578.725 329.014C578.533 328.502 578.349 327.982 578.149 327.454C575.373 318.734 578.005 308.574 582.021 300.574C587.901 290.734 596.341 284.334 607.221 280.974C617.621 278.63 627.141 280.63 636.341 285.774L636.365 285.814Z" fill="#45AAB8"/>
<path d="M538.224 143.519C546.544 148.711 554.064 154.639 561.424 161.119C562.376 161.951 562.376 161.951 563.352 162.807C564.408 163.727 565.464 164.663 566.52 165.591C567.6 166.527 568.736 167.407 569.872 168.271C572.2 170.239 574.088 172.439 576.056 174.759C577.512 176.471 577.512 176.471 579.672 178.471C581.488 180.391 582.128 181.871 583.024 184.319C582.544 184.311 582.064 184.311 581.576 184.303C555.416 184.111 531.336 188.127 507.816 200.303C507.152 200.647 506.488 200.991 505.8 201.343C494.04 207.679 483.48 215.503 473.8 224.703C472.68 225.783 471.552 226.847 470.416 227.911C465.2 232.935 460.816 238.391 456.576 244.311C456.256 244.751 455.936 245.191 455.6 245.647C445.52 259.567 438 275.247 432.56 291.487L431.88 293.527C426.344 310.567 423.8 328.327 423.64 346.167C423.632 346.767 423.632 347.367 423.624 347.983C423.632 351.615 423.984 355.063 424.536 358.703C424.616 360.255 424.68 361.799 424.736 363.351C427.184 398.711 442.096 433.271 466.096 459.351C467.576 460.967 468.992 462.623 470.4 464.311C491.04 487.831 523.52 504.391 554.4 506.631C585.76 508.391 617.12 502.671 641.6 481.431C642.888 480.279 644.16 479.111 645.432 477.935C646.056 477.367 646.68 476.799 647.328 476.207C651.584 472.159 654.92 467.567 658.208 462.767C658.584 462.231 658.96 461.687 659.344 461.135C664.528 453.687 669.184 446.415 672.624 437.935C673.056 436.895 673.488 435.863 673.92 434.823C676.76 427.911 679.032 421.223 680.224 413.783C680.376 412.823 680.376 412.823 680.536 411.847C681.44 405.815 681.84 399.767 682.224 393.687C683.048 380.887 683.952 367.047 694.224 357.927C700.8 353.367 708.544 350.279 716.624 351.527C725.424 354.151 731.184 358.183 735.584 366.167C741.072 377.607 739.176 390.327 737.368 402.407C737.28 403.015 737.192 403.615 737.096 404.231C730.768 447.191 713.896 492.231 679.816 521.031H678.216L677.416 523.431C676.328 524.471 676.328 524.471 674.928 525.511C674.152 526.095 674.152 526.095 673.368 526.687C672.8 527.103 672.24 527.511 671.664 527.927C670.8 528.567 670.8 528.567 669.92 529.223C651.36 542.823 631.6 552.263 609.04 557.223C608.488 557.343 607.936 557.471 607.368 557.599C594.808 560.215 582.088 560.575 569.288 560.519C568.488 560.519 567.696 560.519 566.88 560.511C527.44 560.359 491.2 548.911 458.88 525.871C458.432 525.551 457.976 525.239 457.512 524.911C451.616 520.759 446.312 516.111 441.112 511.151C438.992 509.103 438.992 509.103 436.96 507.687C436.536 507.351 436.104 507.015 435.664 506.671V505.071C435.24 504.911 434.816 504.759 434.376 504.591C431.592 502.959 429.672 500.695 427.512 498.319C427.056 497.815 426.592 497.311 426.112 496.791C422.2 492.479 418.432 488.071 414.832 483.511C414.496 483.071 414.152 482.639 413.8 482.183C383.8 443.223 369.08 394.183 369 345.383V343.135C369.008 331.855 369.384 320.815 371.6 309.695C371.808 308.647 371.808 308.647 372.016 307.575C373.064 302.383 374.304 297.255 375.6 292.055C375.808 291.215 376.016 290.383 376.224 289.519C379.016 278.239 382.32 267.519 386.944 256.879C387.528 255.519 388.064 254.143 388.592 252.767C391.904 244.127 396.752 236.127 401.232 228.047C401.52 227.519 401.808 226.991 402.112 226.439C403.888 223.231 405.912 220.375 408.184 217.479C408.896 216.567 409.616 215.655 410.328 214.743C410.864 214.055 410.864 214.055 411.408 213.367C412.928 211.383 414.368 209.351 415.832 207.327C420.36 201.271 425.592 195.887 430.872 190.447C431.272 190.023 431.68 189.607 432.096 189.175C441.136 179.735 451.296 172.215 462.096 164.855C462.592 164.519 463.088 164.175 463.592 163.831C470.776 158.943 478.232 154.951 486.072 151.271C486.64 150.999 487.2 150.727 487.784 150.447C522.264 133.967 522.264 133.967 538.104 143.271L538.224 143.519Z" fill="#45AAB8"/>
<path d="M366.2 0.40043C397.64 -0.0795704 428.76 2.00043 459 9.28043C459.832 9.48043 460.672 9.67243 461.536 9.88043C490.576 16.8164 518.336 27.4004 545.536 40.3604C546.032 40.6004 546.528 40.8404 547.048 41.0884C570.968 52.6884 593.608 67.4884 614.408 84.0484C616.512 85.7204 618.656 87.3204 620.832 88.8884C621.656 89.5364 622.48 90.1764 623.336 90.8404V92.4404C624.048 92.7924 624.048 92.7924 624.784 93.1444C626.536 94.0404 626.536 94.0404 628.936 95.6404V97.2404C629.36 97.4244 629.792 97.6084 630.232 97.7924C634.424 100.104 637.472 103.296 640.472 106.992C642.128 108.92 643.928 110.68 645.744 112.464C646.656 113.384 647.576 114.304 648.496 115.224L649.952 116.68C652.28 119.008 654.608 121.336 656.944 123.664C657.576 124.296 657.576 124.296 658.224 124.936C659.904 126.632 661.408 128.464 662.944 130.288C664.104 131.656 664.104 131.656 665.312 132.824C668.12 135.664 670.472 138.944 672.944 142.104C673.616 142.952 674.296 143.8 674.976 144.64C690.176 163.68 703.136 184.24 713.776 206.08C714.528 207.624 715.296 209.152 716.072 210.688C723.392 225.488 728.872 241.168 733.832 256.928C734.128 257.864 734.424 258.8 734.728 259.768C738.136 270.888 741.296 283.768 736.184 294.888C732.768 300.656 727.304 306.328 720.664 308.248C713.208 309.184 705.864 309.536 699.384 305.312C698.704 304.872 698.032 304.44 697.336 303.984C688.696 297.72 685.976 289.104 683.576 279.024C677.328 253.024 666.936 228.864 652.936 206.064C652.432 205.24 651.936 204.416 651.416 203.568C645.064 193.328 637.736 183.968 630.056 174.688C628.592 172.896 627.176 171.072 625.76 169.24C616.56 157.72 605.76 146.76 594.48 137.32C593.744 136.688 593.008 136.048 592.256 135.4C582.016 126.52 571.216 118.44 559.776 111C558.432 110.096 557.144 109.144 555.848 108.184C552.856 106.016 549.656 104.312 546.408 102.576C544.04 101.304 541.712 99.9764 539.384 98.6404C529.624 93.0804 519.944 88.0004 509.624 83.6004C507.624 82.7364 505.656 81.8004 503.688 80.8644C481.688 70.9444 458.088 64.0644 434.408 59.7444C433.552 59.5844 432.696 59.4324 431.816 59.2644C400.376 53.5444 366.856 52.4644 335.016 57.3444C333.592 57.5604 333.592 57.5604 332.144 57.7764C301.984 62.3684 270.864 70.0164 244.144 84.5764C244.56 84.7444 244.976 84.9124 245.408 85.0804C247.656 85.9764 249.896 86.8804 252.144 87.7764C252.64 87.9764 253.136 88.1764 253.648 88.3764C262.208 91.7604 270.448 95.4884 278.528 99.7364C279.256 100.12 279.256 100.12 280 100.512C290.32 106.008 299.04 112.912 307.52 120.912C309.704 122.976 309.704 122.976 312.112 124.848C314.848 127.232 316.976 129.776 319.176 132.648C319.568 133.144 319.96 133.64 320.36 134.152C322 136.264 323.272 137.992 324.128 140.544H325.728C326.888 142.256 327.944 143.96 328.976 145.744C329.288 146.288 329.608 146.832 329.936 147.392C330.608 148.536 331.272 149.68 331.936 150.832C332.864 152.44 333.8 154.032 334.744 155.632C347.864 178.112 356.824 203.632 357.144 229.872C357.152 230.512 357.16 231.16 357.168 231.816C357.584 274.936 346.768 314.216 319.888 347.816C319.472 348.352 319.048 348.888 318.616 349.44C317.576 350.728 316.488 351.976 315.392 353.216H313.792V354.816H312.192C311.944 355.464 311.944 355.464 311.688 356.12C310.16 358.752 308.152 360.896 305.792 362.816H304.192L303.392 365.216C302.016 366.448 300.592 367.624 299.136 368.768C296.392 370.936 293.808 373.096 291.392 375.616C291.904 376.032 292.416 376.456 292.944 376.88C297.224 380.36 301.504 383.872 305.664 387.44C306.088 387.8 306.52 388.16 306.96 388.528C309.632 390.776 312.12 393.152 314.568 395.64C315.12 396.168 315.672 396.696 316.248 397.24C323.664 404.368 329.368 412.36 334.568 421.24C334.952 421.904 335.344 422.576 335.744 423.264C346.784 442.304 354.944 463.104 356.944 485.264C357.072 486.656 357.072 486.656 357.208 488.072C359.896 521.832 354.408 554.472 338.568 584.072C338.304 584.568 338.048 585.056 337.776 585.568C333.904 592.856 329.296 599.248 324.176 605.648C323.552 606.448 322.928 607.24 322.288 608.056C319.16 612.008 316.016 615.552 312.128 618.776C310.48 620.136 310.48 620.136 308.704 621.992C302.368 628.248 292.384 636.872 283.264 637.992C279.04 637.584 275.184 636.472 271.104 635.248C270.256 634.992 269.4 634.744 268.528 634.48C249.328 628.632 229.648 619.2 214.608 605.68V604.08C215.272 604 215.272 604 215.952 603.912C242.432 600.528 264.832 592.072 281.712 570.472C299.552 545.112 306.432 517.112 301.632 486.472C298.328 467.592 290.192 449.592 277.792 435.112C276.192 433.16 276.192 433.16 276.192 431.56H274.592C273.8 430.696 273.056 429.784 272.336 428.864C260.176 414.784 241.056 406.784 222.816 405.344C206.256 404.376 190.976 410.184 178.336 420.704C168.816 429.584 162.256 442.224 161.776 455.264C161.728 457.896 161.712 460.528 161.696 463.16C161.688 464.16 161.68 465.16 161.672 466.184C161.648 468.912 161.632 471.64 161.616 474.344C161.6 477.2 161.576 480.056 161.56 482.904C161.52 488.304 161.48 493.704 161.448 499.144C161.408 505.288 161.36 511.464 161.32 517.624C161.224 530.264 161.144 542.904 161.064 555.544L160.264 553.944H157.864C156.216 552.152 156.216 552.152 154.312 549.592C153.968 549.136 153.616 548.672 153.264 548.2C152.12 546.656 150.984 545.104 149.864 543.544C149.272 542.728 149.272 542.728 148.664 541.896C145.816 537.952 143.024 533.96 140.264 529.976C139.664 529.12 139.064 528.264 138.448 527.384C134.24 521.136 130.736 514.584 127.248 507.864C126.768 506.952 126.296 506.048 125.808 505.12C121.288 496.32 117.648 487.36 114.528 477.92C114.264 477.128 113.992 476.336 113.72 475.52C106.496 453.76 106.56 433.44 116.232 412.32C121.744 401.36 131.992 388.88 142.632 382.72C142.56 381.232 142.56 381.232 141.832 379.52C139.808 377.776 139.808 377.776 137.328 376.12C133.128 373.12 129.864 369.928 126.608 365.88C125.672 364.88 124.736 363.88 123.808 362.88C118.512 356.752 115.248 349.92 112.448 342.4C112.216 341.808 111.992 341.208 111.76 340.6C101.12 311.08 109.168 277.64 122.08 250.2C131.92 229.96 145.2 211.96 158.72 194.04L160.32 194.84C161.52 201.48 161.24 208.44 161.24 215.24C161.248 216.824 161.256 218.4 161.264 219.984C161.264 221.664 161.272 223.344 161.272 225.024C161.288 228.544 161.304 232.064 161.32 235.584C161.368 245.584 161.408 255.584 161.44 265.584C161.448 271.128 161.472 276.704 161.504 282.224C161.528 285.144 161.536 288.064 161.536 291.024C161.544 294.288 161.56 297.552 161.584 300.784C161.584 301.728 161.576 302.68 161.576 303.656C161.656 311.608 162.56 319.896 166.664 326.856C167.08 327.568 167.496 328.272 167.928 329.008C169.928 332.128 171.624 334.4 174.72 336.456V338.056C175.416 338.392 175.416 338.392 176.136 338.736C177.784 339.592 179.272 340.528 180.816 341.56C193.616 349.552 209.936 351.48 224.576 348.392C246.896 342.848 266.816 329.272 279.536 310.072C280.192 309.184 280.192 309.184 280.864 308.272C285.096 302.544 288.336 296.352 291.584 290.032C292.24 288.736 292.904 287.456 293.576 286.176C295.816 281.664 297.224 277.056 298.52 272.176C298.768 271.272 298.768 271.272 299.016 270.344C301.408 260.904 302.256 251.704 302.224 242.104C302.224 240.32 302.24 238.536 302.264 236.744C302.376 209.864 292.184 184.824 274.744 164.504C273.824 163.296 273.824 163.296 272.888 162.056C251.128 138.296 216.008 129.496 184.888 126.936C183.632 126.792 183.632 126.792 182.352 126.648C178.304 126.36 175.864 126.712 172.592 129.184C171.344 130.288 170.112 131.408 168.896 132.536C167.656 133.568 166.416 134.608 165.168 135.632C158.536 141.152 151.968 146.912 145.968 153.072C144.072 154.92 144.072 154.92 142.472 154.92C142.152 155.632 142.152 155.632 141.824 156.352C140.848 158.16 139.832 159.376 138.4 160.84C137.904 161.352 137.416 161.856 136.912 162.384C136.384 162.928 135.856 163.464 135.32 164.024C129.824 169.792 124.84 175.704 120.04 182.104C119.448 182.88 119.448 182.88 118.848 183.672C87.0084 225.512 68.9284 274.872 62.6884 326.872C61.3444 337.752 59.5444 346.152 50.4484 353.272C43.3044 357.592 36.7684 359.36 28.5284 357.44C20.4484 355.064 20.4484 355.064 17.6484 352.472V350.872C16.9284 350.576 16.9284 350.576 16.2004 350.272C12.0564 347.912 9.70443 342.792 8.12043 338.432C3.36843 319.712 10.4084 296.992 15.2244 278.912C15.4324 278.112 15.6404 277.312 15.8564 276.488C20.7204 258.008 26.3364 239.448 34.4164 222.088C34.8804 221.008 35.3524 219.92 35.8164 218.832C38.9524 211.48 42.4405 204.352 46.1365 197.232C46.5685 196.392 47.0004 195.56 47.4404 194.696C50.0324 189.736 52.8644 185.096 56.0804 180.456C57.1604 178.76 58.2484 177.064 59.3284 175.36C66.6244 164 74.2084 153.04 82.9284 142.64C84.6084 140.632 86.2484 138.592 87.8964 136.552C90.7924 133.008 93.8084 129.608 96.8564 126.232C98.1604 124.784 99.4165 123.32 100.656 121.808C103.024 118.976 105.472 116.416 108.4 114.16C110.096 112.752 111.32 111.488 112.704 109.808C114.888 107.192 117.256 105.008 119.856 102.808C121.888 101.056 123.84 99.2324 125.8 97.4084C130.136 93.4644 134.68 89.8884 139.4 86.3684C141.008 85.1524 142.6 83.9204 144.192 82.6884C150.96 77.4564 157.792 72.4484 164.912 67.6484C165.88 66.9844 166.856 66.3204 167.824 65.6564C173.544 61.7604 179.344 58.1684 185.424 54.7764C188.08 53.2644 190.656 51.6644 193.24 50.0324C198.464 46.8004 203.88 44.0484 209.4 41.3924C211.64 40.3124 213.872 39.2244 216.104 38.1284C231.304 30.7364 246.504 24.1284 262.584 18.8484C263.368 18.5924 264.16 18.3284 264.976 18.0644C277.136 14.1124 289.376 10.8324 301.856 8.14443C303.944 7.69643 306.032 7.22443 308.112 6.74443C327.072 2.53643 346.832 0.73643 366.192 0.39243L366.2 0.40043Z" fill="#45AAB8"/>
</svg>
